<svg xmlns="http://www.w3.org/2000/svg" x="0px" y="0px" width="100" height="100" viewBox="0 0 100 100">
<path fill="#444445" d="M81,66.5V69c0,2.39-0.65,4.63-1.78,6.55c-1.56-1.85-4.59-2.03-5.16-2.05l0.44-2l-0.01-0.02 C77.37,70.23,79.74,68.48,81,66.5z"></path><path fill="#f7c498" d="M72.29,61.73c-2.45,1.93-5.83,3.77-9.79,3.77c-0.35,0-0.68-0.02-0.99-0.05L61.5,65.5 c0,0,1.5,2,4.5,2c4.21,0,5.86-3.22,6.34-5.7L72.29,61.73z M81,39.65V66.5c-1.26,1.98-3.63,3.73-6.51,4.98 c-1.71,0.75-3.59,1.32-5.52,1.65c-1.32,0.24-2.66,0.37-3.97,0.37c-12.5,0-14.89-6.5-14.89-13.77L48.49,54h0.01 c0.5-5,4-5.99,5.5-6.49S56.5,47,56.5,46c0-2-1.5-3.99-1.5-3.99l-0.08-0.09C58,40.25,62.35,38.77,68.5,38l2.6-0.29 c0.34,0.05,0.68,0.11,1.01,0.16c-3.44,0.69-6,1.87-7.61,3.05c-0.44,0.31-0.8,0.63-1.1,0.93c-0.6,0.62-0.9,1.2-0.9,1.65 c0,1,1,3,2.5,3c3.23,0,3.57-4,9.2-4c2,0,4.3,0,4.3,0l-1.61-3.76c1.88,0.37,3.18,0.66,3.52,0.74c0.01,0,0.04,0.01,0.09,0.02 C80.66,39.55,81,39.65,81,39.65z M79.5,48.5c0-0.63,0-1.5,0-1.5s-1.93-1.45-4.84-1.49c-0.05-0.01-0.11-0.01-0.16-0.01 c-0.21,0-0.46,0.04-0.74,0.11c-0.07,0.01-0.14,0.03-0.22,0.06c-0.07,0.02-0.14,0.04-0.22,0.07c-0.07,0.02-0.15,0.05-0.23,0.08 c-0.18,0.07-0.37,0.14-0.56,0.23c-0.55,0.24-1.13,0.56-1.67,0.92c-0.08,0.05-0.16,0.11-0.24,0.17c-0.13,0.09-0.25,0.18-0.37,0.27 c0,0,0,0,0,0.01c-1.01,0.78-1.77,1.72-1.76,2.58c0.01,2,0.01,2,0.01,2s1,0.5,2.5,0.5c0.65,0,1.26-0.04,1.84-0.12 c0.36-0.05,0.71-0.11,1.05-0.17c0.22-0.05,0.43-0.11,0.64-0.16c0.1-0.03,0.19-0.05,0.28-0.08c0.21-0.06,0.41-0.13,0.6-0.2 c0.18-0.06,0.36-0.13,0.52-0.2c0.05-0.02,0.1-0.04,0.14-0.06c0.11-0.04,0.21-0.09,0.31-0.14c0.02-0.01,0.05-0.02,0.07-0.03 C78.45,50.38,79.5,49.09,79.5,48.5z M53.71,58.5c5.3,0,6.29-4.2,6.29-4.2s-2.35-2.8-4.36-2.8c-0.09,0-0.19,0-0.3,0.01 c-0.07-0.01-0.13-0.01-0.2,0c-0.13,0-0.25,0.01-0.38,0.03c-0.52,0.05-1.16,0.16-1.76,0.43c-1.07,0.47-1.77,0.99-2.15,1.31 c-0.23,0.19-0.35,0.46-0.35,0.76v1.89c0,0.16,0.04,0.32,0.11,0.47C50.93,56.98,51.93,58.5,53.71,58.5z"></path><path fill="#b77748" d="M76.89,38.74l1.61,3.76c0,0-2.3,0-4.3,0c-5.63,0-5.97,4-9.2,4c-1.5,0-2.5-2-2.5-3 c0-0.45,0.3-1.03,0.9-1.65l1.1,1.65v-2.58c1.61-1.18,4.17-2.36,7.61-3.05h0.01C73.92,38.17,75.55,38.48,76.89,38.74z"></path><path fill="#b77748" d="M47.83,51.67L47.5,50.5c0,0,0.42-4.18,6.12-7.81l0.88,1.32v-1.85c0.14-0.08,0.27-0.15,0.42-0.24 L55,42.01c0,0,1.5,1.99,1.5,3.99c0,1-1,1.01-2.5,1.51S49,49,48.5,54h-0.01L47.83,51.67z"></path><path fill="#cdcbbd" d="M81,32.4v7.25c0,0-0.34-0.1-0.5-0.15c0,0,0-1-3.65-9.27c-0.65-1.47-1.21-2.71-1.75-3.73L81,32.4z"></path><path fill="#31c4f3" d="M81,31v1.4l-5.9-5.9c-2.23-4.25-4.06-5-10.1-5c-2.5,0-8.5,0.5-13.5,3c-3.1,1.55-5.66,4.29-7.41,7 H38.5v-3h-2v5h-2v-5h-1v-2h-2v7h-2v-9h-3v9h-2v-5h-2v5h-3v-2H17V31c0-7.18,5.82-13,13-13h38C75.18,18,81,23.82,81,31z"></path><path fill="#e3e2e3" d="M80.5,39.5l-3.77-4.72c-0.15-0.18-0.36-0.31-0.58-0.35l-9.36-1.87c-0.19-0.04-0.39-0.06-0.59-0.06 H53.21c-0.46,0-0.9,0.16-1.26,0.45L44.5,39l-1.48,1.81c-0.44-0.58-1.23-1.4-1.45-2.31c-0.05-0.17-0.07-0.33-0.07-0.5 c0-1.45,0.94-3.95,2.59-6.5c1.75-2.71,4.31-5.45,7.41-7c5-2.5,11-3,13.5-3c6.04,0,7.87,0.75,10.1,5c0.54,1.02,1.1,2.26,1.75,3.73 C80.5,38.5,80.5,39.5,80.5,39.5z"></path><path fill="#e85654" d="M43.02,40.81L44.5,39l7.45-6.05c0.36-0.29,0.8-0.45,1.26-0.45H66.2c0.2,0,0.4,0.02,0.59,0.06 l9.36,1.87c0.22,0.04,0.43,0.17,0.58,0.35l3.77,4.72c-0.05-0.01-0.08-0.02-0.09-0.02c-0.34-0.08-1.64-0.37-3.52-0.74 c-1.34-0.26-2.97-0.57-4.77-0.87h-0.01c-0.33-0.05-0.67-0.11-1.01-0.16c-4.02-0.64-8.69-1.21-12.6-1.21 c-7.62,0-13.81,8.6-15.53,13.06l-1.71-2.17c-1.04-1.31-1.02-3.17,0.04-4.47L43.02,40.81z"></path><path fill="#fff" d="M79.5,47c0,0,0,0.87,0,1.5c0,0.59-1.05,1.88-3.05,2.84c1.2-1.24,1.41-3.23,0.39-4.71l-3.09,2.12 l0.91-3.24C77.57,45.55,79.5,47,79.5,47z"></path><path fill="#f7c498" d="M64.5,43.5v-2.58c-0.44,0.31-0.8,0.63-1.1,0.93L64.5,43.5z"></path><path fill="#f16e7c" d="M79.22,75.55c-2.01,3.45-5.56,5.89-9.72,6.36c-3.87-1.43-4-5.12-4-5.34c0-0.01,0-0.01,0-0.01 c0.74-0.88,1.75-1.64,3.14-2.06l0.06-0.02l-0.2,1.02c0.5,1.5,2,2.02,2,2.02s1.5-0.02,3-1.52l0.56-2.5 C74.63,73.52,77.66,73.7,79.22,75.55z"></path><path fill="#1f212b" d="M76.84,46.63c1.02,1.48,0.81,3.47-0.39,4.71c-0.02,0.01-0.05,0.02-0.07,0.03 c-0.1,0.05-0.2,0.1-0.31,0.14c-0.04,0.02-0.09,0.04-0.14,0.06c-0.16,0.07-0.34,0.14-0.52,0.2c-0.19,0.07-0.39,0.14-0.6,0.2 c-0.09,0.03-0.18,0.05-0.28,0.08c-0.2,0.05-0.42,0.11-0.64,0.16c-0.34,0.06-0.69,0.12-1.05,0.17c-0.86-0.21-1.65-0.72-2.18-1.51 c-0.72-1.05-0.83-2.34-0.41-3.45c0-0.01,0-0.01,0-0.01c0.12-0.09,0.24-0.18,0.37-0.27c0.08-0.06,0.16-0.11,0.24-0.17 c0.54-0.36,1.12-0.68,1.67-0.92c0.19-0.09,0.38-0.17,0.56-0.23c0.08-0.03,0.16-0.06,0.23-0.08c0.07-0.03,0.15-0.05,0.22-0.07 s0.15-0.04,0.22-0.06c0.28-0.07,0.53-0.11,0.74-0.11c0.05,0,0.11,0,0.16,0.01l-0.91,3.24L76.84,46.63z"></path><path fill="#d68f53" d="M74.49,71.48l0.01,0.02l-0.44,2L73.5,76c-1.5,1.5-3,1.52-3,1.52S69,77,68.5,75.5l0.2-1.02l0.27-1.33 v-0.02C70.9,72.8,72.78,72.23,74.49,71.48z"></path><path fill="#e9d5c6" d="M72.29,61.73l0.05,0.07c-0.48,2.48-2.13,5.7-6.34,5.7c-3,0-4.5-2-4.5-2l0.01-0.05 c0.31,0.03,0.64,0.05,0.99,0.05C66.46,65.5,69.84,63.66,72.29,61.73z"></path><path fill="#fff" d="M72.84,52.38c-0.58,0.08-1.19,0.12-1.84,0.12c-1.5,0-2.5-0.5-2.5-0.5s0,0-0.01-2 c-0.01-0.86,0.75-1.8,1.76-2.58c-0.42,1.11-0.31,2.4,0.41,3.45C71.19,51.66,71.98,52.17,72.84,52.38z"></path><path fill="#444445" d="M71.1,37.71c0,0-13.1,2.54-16.18,4.21c-0.15,0.09-0.28,0.16-0.42,0.24 c-0.31,0.18-0.6,0.35-0.88,0.53c-5.7,3.63-6.12,7.81-6.12,7.81l0.33,1.17c-0.04,0.02-0.08,0.04-0.13,0.06 C47.54,51.81,47.3,51.9,47,52c-0.74,0.24-1.9,0.5-3.5,0.5c0,0-1,0-1-1c0-0.46,0.16-1.13,0.47-1.94C44.69,45.1,50.88,36.5,58.5,36.5 C62.41,36.5,67.08,37.07,71.1,37.71z"></path><path fill="#f7c498" d="M54.5,44.01v-1.85c-0.31,0.18-0.6,0.35-0.88,0.53L54.5,44.01z"></path><path fill="#444445" d="M68.97,73.13v0.02l-0.27,1.33l-0.06,0.02c-1.39,0.42-2.4,1.18-3.14,2.06c0,0,0,0,0,0.01 c-1.93,2.3-2,5.43-2,5.43h-6.39c-4.95-6.75-6.42-14.05-6.84-18.39c-0.24-2.39-0.16-3.88-0.16-3.88C50.11,67,52.5,73.5,65,73.5 C66.31,73.5,67.65,73.37,68.97,73.13z"></path><path fill="#e85654" d="M69.5,81.91C69.01,81.97,68.51,82,68,82h-4.5c0,0,0.07-3.13,2-5.43 C65.5,76.79,65.63,80.48,69.5,81.91z"></path><path fill="#fff" d="M60,54.3c0,0-0.99,4.2-6.29,4.2c-1.78,0-2.78-1.52-3.1-2.1c-0.07-0.15-0.11-0.31-0.11-0.47v-1.89 c0-0.3,0.12-0.57,0.35-0.76c0.38-0.32,1.08-0.84,2.15-1.31c0.6-0.27,1.24-0.38,1.76-0.43c-0.48,0.07-0.95,0.25-1.36,0.53 c-1.47,1.01-1.84,3.05-0.83,4.52s3.04,1.85,4.51,0.84c1.47-1.01,1.85-3.05,0.84-4.52l-2.68,1.84l0.88-3.13 c-0.26-0.07-0.52-0.11-0.78-0.11c0.11-0.01,0.21-0.01,0.3-0.01C57.65,51.5,60,54.3,60,54.3z"></path><path fill="#1f212b" d="M57.92,52.91c1.01,1.47,0.63,3.51-0.84,4.52c-1.47,1.01-3.5,0.63-4.51-0.84s-0.64-3.51,0.83-4.52 c0.41-0.28,0.88-0.46,1.36-0.53c0.13-0.02,0.25-0.03,0.38-0.03c0.07,0,0.14-0.01,0.2,0c0.26,0,0.52,0.04,0.78,0.11l-0.88,3.13 L57.92,52.91z"></path><path fill="#d1cfc2" d="M57.11,82h-5.64c-0.31-0.48-3.44-5.42-5.05-15c-0.47-2.78-0.81-5.94-0.92-9.5h2l1.11,7.99l1.65-1.88 h0.01C50.69,67.95,52.16,75.25,57.11,82z"></path><path fill="#d1cfc2" d="M51.47,82H30c-1.85,0-3.62-0.39-5.21-1.09c2.93-0.23,10.52-1.05,16.3-3.53 c0.76-0.33,1.12-1.21,0.79-1.97c-0.33-0.76-1.21-1.12-1.97-0.79c-0.04,0.02-0.07,0.03-0.11,0.04l-0.06-0.16l-0.88-4.99V69.5 l-0.36-2c0,0,0.48-0.96,1.03-2.11c0.17,0.33,1.29,2.11,4.47,2.11c1.37,0,2.41-0.5,2.41-0.5h0.01C48.03,76.58,51.16,81.52,51.47,82z"></path><path fill="#b77748" d="M50.27,63.61h-0.01l-1.65,1.88L47.5,57.5h-2h-2L47,52c0.3-0.1,0.54-0.19,0.7-0.27 c0.05-0.02,0.09-0.04,0.13-0.06L48.49,54l1.62,5.73C50.11,59.73,50.03,61.22,50.27,63.61z"></path><path fill="#d4b47d" d="M47,52l-3.5,5.5h2c0.11,3.56,0.45,6.72,0.92,9.5h-0.01c0,0-1.04,0.5-2.41,0.5 c-3.18,0-4.3-1.78-4.47-2.11c0.57-1.2,1.21-2.62,1.47-3.39c0.36-1.08-0.83-4.49-1.53-5.88c-0.29-0.58-0.76-1.05-1.34-1.34 c0,0-3.09-1.22-4.13-1.22v-0.03c0.65-0.02,1.32-0.03,2-0.03c0.83,0,1.5-0.67,1.5-1.5s-0.67-1.5-1.5-1.5c-0.25,0-0.5,0-0.75,0.01 V50.5c-0.44-1.7-1.43-3.19-2.76-4.24l0.01-0.01v-2.07c0-1.1-0.3-2.18-0.88-3.12l-1.55-2.55l0.02-0.01h11.48 c0.22,0.91,1.01,1.73,1.45,2.31l-1.72,2.11c-1.06,1.3-1.08,3.16-0.04,4.47l1.71,2.17c-0.31,0.81-0.47,1.48-0.47,1.94c0,1,1,1,1,1 C45.1,52.5,46.26,52.24,47,52z"></path><path fill="#3a83c1" d="M38.5,31.5h5.59c-1.65,2.55-2.59,5.05-2.59,6.5c0,0.17,0.02,0.33,0.07,0.5H30.09l-0.02,0.01 l-0.59-0.97c-0.57-0.9-1.69-1.28-2.69-0.92l-2.45,0.89c-0.46,0.17-0.76,0.57-0.82,1.03h-0.01L17,38.5v-7h2.5v2h3v-5h2v5h2v-9h3v9h2 v-7h2v2h1v5h2v-5h2V31.5z"></path><path fill="#a2b4cc" d="M23.5,77.99c0.6-0.03,4.36-0.27,8.63-1.11c2.56-0.5,5.3-1.21,7.67-2.22 c0.04-0.01,0.07-0.02,0.11-0.04c0.76-0.33,1.64,0.03,1.97,0.79s-0.03,1.64-0.79,1.97c-5.78,2.48-13.37,3.3-16.3,3.53 c-0.99-0.43-1.92-0.99-2.77-1.65c0.11-0.68,0.68-1.22,1.4-1.26C23.42,78,23.45,78,23.5,77.99z"></path><path fill="#f7c498" d="M39.47,56.12c0.7,1.39,1.89,4.8,1.53,5.88c-0.26,0.77-0.9,2.19-1.47,3.39 c-0.55,1.15-1.03,2.11-1.03,2.11s0-0.5-1.5-6.5c-0.38-1.53-2.13-2.06-3-2.5c-0.97-0.48-1.47-0.97-1.5-1.91c0-0.03,0-0.06,0-0.09 c0-0.63,0.5-2.94,1.5-2.94c1.04,0,4.13,1.22,4.13,1.22C38.71,55.07,39.18,55.54,39.47,56.12z"></path><path fill="#e85654" d="M39.74,74.5l0.06,0.16c-2.37,1.01-5.11,1.72-7.67,2.22c2.39-0.45,5.9-3.06,6.73-7.37L39.74,74.5z"></path><path fill="#f3cbca" d="M38.86,69.5v0.01c-0.83,4.31-4.34,6.92-6.73,7.37c-4.94,0.93-9.07-1.38-9.07-1.38l2.44-4 c0,0,1.5,0.5,3,0.5c2.4,0,3-1,3-1.5c0-1-0.75-1.01-1.5-1c-0.77,0.01-5.3,0.96-7.83,1l-1.01-5.63h0.01c0,0,2.33-2.37,2.33-7.37 l5.99-3.7h0.01v3.7l1.24-3.8c1.04-0.08,2.13-0.14,3.26-0.17v0.03c-1,0-1.5,2.31-1.5,2.94c0,0.03,0,0.06,0,0.09V57c0,0,0,3.5,1,5 c-1,2.5-4,3.5-4,3.5l-1-3c0,0-2,2-2,3.5c0,1.14,1.38,1.5,3,1.5c1.53,0,4-1,6-1c1.41,0,2.5,0.5,3,1L38.86,69.5z"></path><path fill="#a2b4cc" d="M36,50.5c0.83,0,1.5,0.67,1.5,1.5s-0.67,1.5-1.5,1.5c-0.68,0-1.35,0.01-2,0.03 c-1.13,0.03-2.22,0.09-3.26,0.17c-0.42,0.03-0.84,0.07-1.24,0.1h-0.01c-5.92,0.55-10.05,1.64-10.1,1.65 c-0.13,0.03-0.26,0.05-0.39,0.05c-0.66,0-1.27-0.44-1.45-1.11c-0.21-0.8,0.26-1.63,1.06-1.84c0.06-0.01,0.37-0.09,0.89-0.22 c2.21-0.51,8.29-1.75,15.75-1.82C35.5,50.5,35.75,50.5,36,50.5z"></path><path fill="#e85654" d="M37,61c1.5,6,1.5,6.5,1.5,6.5c-0.5-0.5-1.59-1-3-1c-2,0-4.47,1-6,1c-1.62,0-3-0.36-3-1.5 c0-1.5,2-3.5,2-3.5l1,3c0,0,3-1,4-3.5c-1-1.5-1-5-1-5v-0.41c0.03,0.94,0.53,1.43,1.5,1.91C34.87,58.94,36.62,59.47,37,61z"></path><path fill="#e85654" d="M30.74,53.7c-0.42,0.03-0.84,0.07-1.24,0.1v3.7L30.74,53.7z"></path><path fill="#8e9cb3" d="M35.25,50.5v0.01c-7.46,0.07-13.54,1.31-15.75,1.82c0.02-0.99,0.23-1.95,0.58-2.82V49.5 c0.45,0.05,0.9-0.17,1.13-0.58l1.16-2.02c0.11-0.2,0.15-0.43,0.11-0.64h0.02c0.46-0.37,0.96-0.69,1.5-0.96c0,0,0.06-0.03,0.17-0.07 c0.52-0.18,2.2-0.66,5.02-0.55c1.23,0.27,2.35,0.81,3.3,1.58C33.82,47.31,34.81,48.8,35.25,50.5z"></path><path fill="#f7c498" d="M32.5,44.18v2.07l-0.01,0.01c-0.95-0.77-2.07-1.31-3.3-1.58L28.5,39.5l-4.45,0.6l-0.41-0.82 c-0.12-0.24-0.16-0.5-0.12-0.74c0.06-0.46,0.36-0.86,0.82-1.03l2.45-0.89c1-0.36,2.12,0.02,2.69,0.92l0.59,0.97l1.55,2.55 C32.2,42,32.5,43.08,32.5,44.18z"></path><path fill="#e85654" d="M31.5,70.5c0,0.5-0.6,1.5-3,1.5c-1.5,0-3-0.5-3-0.5l-2.44,4l-0.89-5c2.53-0.04,7.06-0.99,7.83-1 C30.75,69.49,31.5,69.5,31.5,70.5z"></path><path fill="#e85654" d="M32.13,76.88c-4.27,0.84-8.03,1.08-8.63,1.11l-0.44-2.49C23.06,75.5,27.19,77.81,32.13,76.88z"></path><path fill="#e85654" d="M29.49,53.8l-5.99,3.7c0,5-2.33,7.37-2.33,7.37h-0.01l-0.85-4.79c0.12-0.16,0.19-0.36,0.19-0.58v-3 c0-0.55-0.45-1-1-1H19c0.13,0,0.26-0.02,0.39-0.05C19.44,55.44,23.57,54.35,29.49,53.8z"></path><path fill="#cdcbbd" d="M28.5,39.5l0.69,5.18c-2.82-0.11-4.5,0.37-5.02,0.55v-0.01l-0.67-5.05l0.55-0.07L28.5,39.5z M27.17,42.33c0-0.46-0.38-0.83-0.84-0.83c-0.46,0-0.83,0.37-0.83,0.83c0,0.46,0.37,0.84,0.83,0.84 C26.79,43.17,27.17,42.79,27.17,42.33z"></path><path fill="#1f212b" d="M26.33,41.5c0.46,0,0.84,0.37,0.84,0.83c0,0.46-0.38,0.84-0.84,0.84c-0.46,0-0.83-0.38-0.83-0.84 C25.5,41.87,25.87,41.5,26.33,41.5z"></path><path fill="#d4b47d" d="M24.17,45.22v0.01C24.06,45.27,24,45.3,24,45.3c-0.54,0.27-1.04,0.59-1.5,0.96h-0.02 c-0.04-0.28-0.2-0.53-0.44-0.69l-1.46-0.93c-0.28-0.18-0.63-0.2-0.93-0.06L18.75,45c-0.76,0.36-1.25,1.13-1.25,1.97v0.86 c0,0.4,0.25,0.77,0.62,0.92l1.64,0.67c0.1,0.04,0.21,0.07,0.32,0.08v0.01c-0.35,0.87-0.56,1.83-0.58,2.82 c-0.52,0.13-0.83,0.21-0.89,0.22c-0.8,0.21-1.27,1.04-1.06,1.84c0.18,0.67,0.79,1.11,1.45,1.11h-1.5v5v3.39H17V38.5l6.51,0.04h0.01 c-0.04,0.24,0,0.5,0.12,0.74l0.41,0.82l-0.55,0.07L24.17,45.22z"></path><path fill="#d1cfc2" d="M23.06,75.5l0.44,2.49C23.45,78,23.42,78,23.42,78c-0.72,0.04-1.29,0.58-1.4,1.26 C18.96,76.88,17,73.17,17,69v-5.11h0.5l1.68,0.56c0.65,0.21,1.32-0.27,1.32-0.95v-2c0-0.55-0.45-1-1-1c0.33,0,0.63-0.17,0.81-0.42 l0.85,4.79l1.01,5.63L23.06,75.5z"></path><path fill="#f7c498" d="M22.48,46.26c0.04,0.21,0,0.44-0.11,0.64l-1.16,2.02c-0.23,0.41-0.68,0.63-1.13,0.58 c-0.11-0.01-0.22-0.04-0.32-0.08l-1.64-0.67c-0.37-0.15-0.62-0.52-0.62-0.92v-0.86c0-0.84,0.49-1.61,1.25-1.97l0.9-0.42 c0.3-0.14,0.65-0.12,0.93,0.06l1.46,0.93C22.28,45.73,22.44,45.98,22.48,46.26z"></path><path fill="#f7c498" d="M20.5,61.5v2c0,0.68-0.67,1.16-1.32,0.95l-1.68-0.56V60.5h2C20.05,60.5,20.5,60.95,20.5,61.5z"></path><path fill="#f7c498" d="M20.5,56.5v3c0,0.22-0.07,0.42-0.19,0.58c-0.18,0.25-0.48,0.42-0.81,0.42h-2v-5H19h0.5 C20.05,55.5,20.5,55.95,20.5,56.5z"></path><g><circle cx="26.334" cy="42.334" r=".834" fill="#1f212b"></circle><path fill="#1f212b" d="M76.45,51.34c-0.98,0.47-2.19,0.86-3.61,1.04c-0.86-0.21-1.65-0.72-2.18-1.51 c-0.72-1.05-0.83-2.34-0.41-3.45c0-0.01,0-0.01,0-0.01c1.4-1.09,3.27-1.91,4.25-1.91c0.05,0,0.11,0,0.16,0.01l-0.91,3.24l3.09-2.12 C77.86,48.11,77.65,50.1,76.45,51.34z"></path><path fill="#1f212b" d="M57.923,52.909l-2.678,1.84l0.873-3.13c-0.926-0.258-1.921-0.093-2.713,0.452 c-1.469,1.009-1.848,3.049-0.838,4.518c1.009,1.469,3.049,1.848,4.518,0.838C58.554,56.418,58.932,54.379,57.923,52.909z"></path><path fill="#1f212b" d="M53.706,59.001c-2.028,0-3.146-1.654-3.532-2.365C50.058,56.42,50,56.184,50,55.931v-1.895 c0-0.446,0.191-0.861,0.524-1.141c0.424-0.357,1.164-0.889,2.271-1.385C53.934,51,55.172,51,55.639,51 c2.215,0,4.642,2.856,4.744,2.979c0.102,0.12,0.14,0.282,0.104,0.436C60.476,54.46,59.343,59,53.706,59.001z M55.639,52 c-0.446,0-1.491,0-2.434,0.423c-1.055,0.473-1.729,0.979-2.038,1.239C51.061,53.751,51,53.887,51,54.036v1.895 c0,0.087,0.018,0.162,0.055,0.23c0.299,0.552,1.16,1.84,2.651,1.84c4.174-0.001,5.443-2.739,5.735-3.58 C58.693,53.596,56.972,52,55.639,52z"></path><path fill="#1f212b" d="M71,53c-1.6,0-2.679-0.53-2.724-0.553c-0.168-0.084-0.275-0.256-0.276-0.443l-0.014-2 c-0.005-0.732,0.391-1.504,1.176-2.295C70.569,46.291,73.113,45,74.5,45c3.131,0,5.213,1.535,5.3,1.6 c0.126,0.094,0.2,0.243,0.2,0.4v1.5C80,49.806,76.846,53,71,53z M68.998,51.663C69.367,51.796,70.084,52,71,52 c5.314,0,8-2.909,8-3.5v-1.233C78.441,46.917,76.764,46,74.5,46c-1.011,0-3.301,1.076-4.628,2.413 c-0.583,0.587-0.889,1.134-0.886,1.584L68.998,51.663z"></path><path fill="#1f212b" d="M62.5,62c-0.276,0-0.5-0.224-0.5-0.5c0-1.407,1.159-3.5,4.352-3.5H68.5c0.276,0,0.5,0.224,0.5,0.5 S68.776,59,68.5,59h-2.148C63.7,59,63,60.636,63,61.5C63,61.776,62.776,62,62.5,62z"></path><path fill="#1f212b" d="M48.608,65.987c-0.048,0-0.097-0.007-0.144-0.021c-0.187-0.056-0.324-0.216-0.351-0.41L47.064,58 H43.5c-0.183,0-0.351-0.1-0.438-0.26c-0.087-0.159-0.082-0.354,0.017-0.509l3.5-5.5l0.844,0.537L44.411,57H47.5 c0.25,0,0.461,0.184,0.495,0.432l0.958,6.908l0.931-1.057l0.75,0.662l-1.652,1.873C48.887,65.928,48.749,65.987,48.608,65.987z"></path><path fill="#1f212b" d="M64.5,44c-0.164,0-0.321-0.081-0.416-0.223l-1.097-1.646c-0.153-0.23-0.091-0.541,0.139-0.693 c0.228-0.152,0.538-0.092,0.693,0.139L64,41.848v-0.932c0-0.276,0.224-0.5,0.5-0.5s0.5,0.224,0.5,0.5V43.5 c0,0.22-0.145,0.415-0.355,0.479C64.597,43.993,64.548,44,64.5,44z"></path><path fill="#1f212b" d="M54.5,44.514c-0.164,0-0.321-0.081-0.416-0.223l-0.883-1.324c-0.153-0.23-0.091-0.54,0.139-0.693 c0.212-0.142,0.497-0.101,0.66,0.094v-0.211c0-0.276,0.224-0.5,0.5-0.5s0.5,0.224,0.5,0.5v1.857c0,0.22-0.145,0.415-0.355,0.479 C54.597,44.507,54.548,44.514,54.5,44.514z"></path><path fill="#1f212b" d="M24.832,81.413l-0.08-0.996c2.956-0.238,10.446-1.057,16.142-3.498 c0.507-0.217,0.743-0.807,0.525-1.312c-0.105-0.246-0.3-0.436-0.549-0.535c-0.248-0.101-0.52-0.095-0.764,0.009 c-6.764,2.899-16.559,3.416-16.657,3.421c-0.469,0.023-0.863,0.377-0.937,0.84l-0.987-0.156c0.147-0.928,0.936-1.635,1.875-1.682 c0.097-0.005,9.72-0.516,16.312-3.342c0.489-0.21,1.033-0.219,1.53-0.019c0.496,0.198,0.885,0.578,1.096,1.069 c0.435,1.014-0.037,2.191-1.05,2.626C35.456,80.338,27.837,81.171,24.832,81.413z"></path><path fill="#1f212b" d="M35.5,57c-0.146,0-0.291-0.063-0.39-0.187c-0.173-0.215-0.139-0.53,0.076-0.703 C35.217,56.085,36,55.422,36,54.195c0-0.276,0.224-0.5,0.5-0.5s0.5,0.224,0.5,0.5c0,1.72-1.138,2.655-1.187,2.694 C35.721,56.964,35.61,57,35.5,57z"></path><path fill="#1f212b" d="M18.999,56c-0.905,0-1.699-0.611-1.932-1.486c-0.138-0.515-0.066-1.055,0.202-1.517 c0.268-0.463,0.699-0.793,1.214-0.931C19.289,51.854,26.608,50,36,50c1.103,0,2,0.897,2,2c0,1.103-0.897,2-2,2 c-9.135,0-16.411,1.913-16.483,1.933C19.35,55.978,19.176,56,18.999,56z M36,51c-9.266,0-16.469,1.825-17.26,2.033 c-0.256,0.068-0.472,0.233-0.605,0.465s-0.17,0.501-0.101,0.759c0.14,0.523,0.719,0.839,1.223,0.71C19.331,54.946,26.69,53,36,53 c0.551,0,1-0.448,1-1S36.551,51,36,51z"></path><path fill="#1f212b" d="M21.522,65.224l-0.714-0.7C20.83,64.501,23,62.209,23,57.5c0-0.174,0.09-0.335,0.238-0.426l6-3.695 c0.154-0.095,0.349-0.099,0.506-0.011C29.902,53.456,30,53.623,30,53.805v0.548l0.262-0.806l0.951,0.311l-1.238,3.798 c-0.076,0.233-0.312,0.378-0.554,0.339C29.179,57.955,29,57.746,29,57.5v-2.8l-5.002,3.08 C23.914,62.735,21.622,65.123,21.522,65.224z"></path><path fill="#1f212b" d="M29.5,68c-3.045,0-3.5-1.253-3.5-2c0-1.659,1.927-3.634,2.146-3.854 c0.122-0.122,0.3-0.176,0.468-0.133c0.169,0.039,0.305,0.164,0.359,0.328l0.832,2.494c0.795-0.361,2.403-1.252,3.133-2.799 C32.011,60.344,32,57.142,32,57l0.001-0.414l1,0.002L33,57.001c0,0.931,0.166,3.597,0.916,4.722 c0.091,0.137,0.109,0.311,0.048,0.463c-1.074,2.685-4.175,3.745-4.306,3.789c-0.126,0.041-0.263,0.033-0.382-0.027 c-0.119-0.06-0.209-0.163-0.25-0.289l-0.729-2.185C27.712,64.184,27,65.229,27,66c0,0.87,1.566,1,2.5,1 c0.656,0,1.55-0.212,2.498-0.437C33.167,66.286,34.375,66,35.5,66c1.627,0,2.799,0.592,3.354,1.146l-0.707,0.707 C37.722,67.429,36.738,67,35.5,67c-1.008,0-2.159,0.272-3.272,0.536C31.223,67.774,30.273,68,29.5,68z"></path><path fill="#1f212b" d="M19.5,61h-2c-0.276,0-0.5-0.224-0.5-0.5v-5c0-0.276,0.224-0.5,0.5-0.5h2c0.827,0,1.5,0.673,1.5,1.5 v3C21,60.327,20.327,61,19.5,61z M18,60h1.5c0.276,0,0.5-0.225,0.5-0.5v-3c0-0.275-0.224-0.5-0.5-0.5H18V60z"></path><path fill="#1f212b" d="M19.505,65.001c-0.16,0-0.321-0.025-0.479-0.078l-1.684-0.562C17.138,64.293,17,64.102,17,63.887 v-3.388c0-0.276,0.224-0.5,0.5-0.5h2c0.827,0,1.5,0.673,1.5,1.5v2c0,0.488-0.227,0.932-0.623,1.218 C20.116,64.904,19.813,65.001,19.505,65.001z M18,63.526l1.342,0.447c0.154,0.052,0.318,0.026,0.45-0.068 C19.924,63.81,20,63.662,20,63.499v-2c0-0.275-0.224-0.5-0.5-0.5H18V63.526z"></path><path fill="#1f212b" d="M20.196,50.003c-0.208,0-0.418-0.039-0.62-0.121l-1.64-0.666C17.368,48.986,17,48.44,17,47.827 v-0.852c0-1.034,0.605-1.985,1.541-2.424l0.896-0.421c0.458-0.213,0.984-0.179,1.409,0.089l1.458,0.926 c0.675,0.429,0.894,1.309,0.496,2.003l-1.154,2.018C21.341,49.697,20.778,50.003,20.196,50.003z M20.061,44.991 c-0.067,0-0.135,0.015-0.199,0.044l-0.896,0.421C18.379,45.731,18,46.327,18,46.975v0.852c0,0.204,0.123,0.386,0.312,0.462l0,0 l1.64,0.666c0.306,0.124,0.661,0.001,0.826-0.286l1.154-2.017c0.131-0.23,0.06-0.521-0.164-0.663l-1.458-0.926 C20.234,45.016,20.147,44.991,20.061,44.991z"></path><path fill="#1f212b" d="M43.5,53c-0.603,0-1.5-0.399-1.5-1.5C42,48.363,49.214,36,58.5,36 c8.953,0,21.981,2.983,22.112,3.013l-0.225,0.975C80.258,39.958,67.339,37,58.5,37C49.963,37,43,48.658,43,51.5 c0,0.402,0.275,0.494,0.506,0.5c2.183,0,3.513-0.504,3.983-0.72l0.116-0.056l0.45,0.893l-0.143,0.069 C47.249,52.491,45.8,53,43.5,53z"></path><path fill="#1f212b" d="M34.764,50.625c-0.701-2.723-2.929-4.865-5.677-5.457c-3.187-0.114-4.872,0.588-4.888,0.595 c-0.476,0.231-0.95,0.532-1.389,0.884l-0.625-0.781c0.498-0.398,1.035-0.738,1.597-1.012c0.094-0.041,1.91-0.812,5.43-0.675 c3.2,0.681,5.726,3.109,6.521,6.196L34.764,50.625z"></path><path fill="#1f212b" d="M20.002,52.343l-1-0.02c0.021-1.037,0.228-2.048,0.615-3.006l0.927,0.375 C20.203,50.537,20.02,51.429,20.002,52.343z"></path><path fill="#1f212b" d="M29.712,77.603c-3.865,0-6.755-1.585-6.9-1.666c-0.119-0.066-0.206-0.178-0.24-0.31 c-0.035-0.132-0.014-0.271,0.057-0.388l2.444-4c0.121-0.198,0.366-0.284,0.584-0.214C25.672,71.03,27.103,71.5,28.5,71.5 c2.076,0,2.5-0.789,2.5-1c0-0.126-0.016-0.292-0.093-0.368c-0.138-0.138-0.577-0.131-0.903-0.132 c-0.24,0.002-1.074,0.139-1.957,0.283c-1.779,0.291-4.215,0.688-5.873,0.716l-0.017-1c1.584-0.025,3.979-0.417,5.728-0.703 c1.178-0.192,1.807-0.293,2.11-0.296c0.526-0.001,1.182-0.01,1.616,0.422C31.869,69.678,32,70.04,32,70.5c0,0.743-0.737,2-3.5,2 c-1.114,0-2.212-0.256-2.774-0.411l-1.957,3.203c1.192,0.543,4.513,1.802,8.272,1.096c2.156-0.407,5.545-2.843,6.329-6.98 l0.982,0.186c-0.87,4.601-4.69,7.317-7.125,7.777C31.357,77.534,30.514,77.603,29.712,77.603z"></path><rect width="1" height="18.201" x="21.407" y="59.94" fill="#1f212b" transform="rotate(-10.078 21.915 69.059)"></rect><path fill="#1f212b" d="M68,83H30c-7.72,0-14-6.28-14-14V31c0-7.72,6.28-14,14-14h38c7.72,0,14,6.28,14,14v38 C82,76.72,75.72,83,68,83z M30,19c-6.617,0-12,5.383-12,12v38c0,6.617,5.383,12,12,12h38c6.617,0,12-5.383,12-12V31 c0-6.617-5.383-12-12-12H30z"></path><path fill="#1f212b" d="M36.5,34h-2c-0.276,0-0.5-0.224-0.5-0.5V29h-0.5c-0.276,0-0.5-0.224-0.5-0.5V27h-1v6.5 c0,0.276-0.224,0.5-0.5,0.5h-2c-0.276,0-0.5-0.224-0.5-0.5V25h-2v8.5c0,0.276-0.224,0.5-0.5,0.5h-2c-0.276,0-0.5-0.224-0.5-0.5V29 h-1v4.5c0,0.276-0.224,0.5-0.5,0.5h-3c-0.276,0-0.5-0.224-0.5-0.5V32h-2v-1h2.5c0.276,0,0.5,0.224,0.5,0.5V33h2v-4.5 c0-0.276,0.224-0.5,0.5-0.5h2c0.276,0,0.5,0.224,0.5,0.5V33h1v-8.5c0-0.276,0.224-0.5,0.5-0.5h3c0.276,0,0.5,0.224,0.5,0.5V33h1 v-6.5c0-0.276,0.224-0.5,0.5-0.5h2c0.276,0,0.5,0.224,0.5,0.5V28h0.5c0.276,0,0.5,0.224,0.5,0.5V33h1v-4.5 c0-0.276,0.224-0.5,0.5-0.5h2c0.276,0,0.5,0.224,0.5,0.5V31h5.086v1H38.5c-0.276,0-0.5-0.224-0.5-0.5V29h-1v4.5 C37,33.776,36.776,34,36.5,34z"></path><path fill="#1f212b" d="M23.676,45.289l-0.672-5.052c-0.037-0.273,0.156-0.525,0.429-0.562l5.003-0.671 c0.131-0.02,0.264,0.018,0.37,0.098c0.105,0.081,0.174,0.2,0.192,0.332l0.689,5.179l-0.991,0.132l-0.623-4.683L24.062,40.6 l0.606,4.557L23.676,45.289z"></path><path fill="#1f212b" d="M33,46.255h-1v-2.072c0-1.008-0.277-1.998-0.802-2.86l-2.146-3.524 c-0.445-0.699-1.309-0.989-2.094-0.706l-2.447,0.89c-0.209,0.076-0.37,0.232-0.452,0.439c-0.083,0.207-0.073,0.43,0.026,0.629 l0.411,0.823l-0.895,0.447l-0.411-0.822c-0.226-0.45-0.248-0.978-0.062-1.446c0.187-0.469,0.566-0.837,1.04-1.009l2.447-0.89 c1.229-0.448,2.581,0.011,3.285,1.116l2.151,3.533c0.62,1.02,0.948,2.188,0.948,3.38V46.255z"></path><rect width="1" height="6.514" x="19.757" y="35.265" fill="#1f212b" transform="rotate(-89.616 20.256 38.52)"></rect><rect width="11.481" height="1" x="30.092" y="38" fill="#1f212b"></rect><path fill="#1f212b" d="M42.648,41.137c-0.09-0.12-0.196-0.25-0.31-0.391C41.774,40.051,41,39.099,41,38 c0-3.025,4.002-10.81,10.276-13.947C57.211,21.085,64.221,21,65,21c7.709,0,8.927,1.365,12.309,9.031 C80.822,37.991,81,39.315,81,39.5h-1c-0.004-0.016-0.18-1.303-3.605-9.065C73.094,22.953,72.246,22,65,22 c-0.756,0-7.548,0.083-13.276,2.947C46.01,27.804,42,35.123,42,38c0,0.744,0.618,1.505,1.115,2.116 c0.123,0.151,0.237,0.292,0.334,0.422L42.648,41.137z"></path><rect width="1" height="8.427" x="77.577" y="25.268" fill="#1f212b" transform="rotate(-44.968 78.076 29.482)"></rect><path fill="#1f212b" d="M47.5,50.999c-0.017,0-0.035-0.001-0.052-0.003c-0.274-0.028-0.473-0.272-0.446-0.546 c0.042-0.424,1.271-10.426,21.435-12.946l2.61-0.294c0.265-0.029,0.521,0.167,0.553,0.441c0.03,0.274-0.167,0.522-0.441,0.553 l-2.604,0.293c-19.294,2.412-20.548,11.958-20.559,12.055C47.97,50.808,47.753,50.999,47.5,50.999z"></path><path fill="#1f212b" d="M42.976,50.064c-0.148,0-0.294-0.065-0.393-0.19l-1.714-2.169c-1.177-1.489-1.159-3.635,0.042-5.104 l3.202-3.918c0.021-0.026,0.045-0.05,0.072-0.072l7.451-6.054c0.443-0.36,1.001-0.557,1.57-0.558h12.997 c0.229,0,0.458,0.023,0.684,0.067l9.355,1.869c0.346,0.071,0.655,0.261,0.873,0.534l3.775,4.717 c0.172,0.216,0.138,0.53-0.078,0.703c-0.216,0.172-0.529,0.139-0.703-0.078l-3.775-4.718c-0.073-0.091-0.176-0.155-0.29-0.178 l-9.352-1.868C66.532,33.017,66.368,33,66.203,33l-12.996-0.002c-0.34,0-0.675,0.12-0.94,0.336l-7.412,6.022l-3.17,3.878 c-0.906,1.108-0.919,2.728-0.032,3.851l1.714,2.169c0.171,0.217,0.135,0.531-0.082,0.702 C43.193,50.029,43.084,50.064,42.976,50.064z"></path><path fill="#1f212b" d="M51.087,82.321c-0.228-0.333-5.588-8.349-6.087-24.806l1-0.031 c0.489,16.136,5.858,24.193,5.913,24.272L51.087,82.321z"></path><path fill="#1f212b" d="M48.998,54.05l-0.995-0.1c0.516-5.156,4.137-6.35,5.684-6.859l0.155-0.051 c0.327-0.109,0.631-0.196,0.906-0.274C55.836,46.456,56,46.356,56,46c0-1.812-1.385-3.666-1.399-3.685l-0.063-0.076l0.771-0.638 l0.077,0.093C55.464,41.799,57,43.857,57,46c0,1.165-0.961,1.438-1.979,1.728c-0.263,0.075-0.552,0.157-0.863,0.261l-0.159,0.053 C52.409,48.565,49.448,49.541,48.998,54.05z"></path><path fill="#1f212b" d="M65,47c-1.832,0-3-2.298-3-3.5c0-1.977,3.833-4.877,10.024-6.117l0.196,0.98 C66.167,39.575,63,42.352,63,43.5c0,0.834,0.864,2.5,2,2.5c1.207,0,1.952-0.647,2.896-1.467c1.3-1.128,2.917-2.533,6.308-2.533 h3.538l-1.313-3.063l0.92-0.394l1.611,3.76c0.065,0.154,0.05,0.332-0.043,0.472C78.825,42.916,78.668,43,78.5,43h-4.296 c-3.017,0-4.417,1.216-5.652,2.288C67.538,46.168,66.581,47,65,47z"></path><path fill="#1f212b" d="M62.504,66c-2.621,0-4.214-1.039-4.28-1.084c-0.229-0.152-0.292-0.461-0.141-0.691 c0.153-0.231,0.461-0.293,0.692-0.142C58.789,64.092,60.203,65,62.504,65c7.883,0,13.534-7.714,13.59-7.792 c0.162-0.225,0.476-0.276,0.698-0.113c0.224,0.161,0.275,0.473,0.114,0.697C76.665,58.127,70.906,66,62.504,66z"></path><path fill="#1f212b" d="M66,68c-3.213,0-4.833-2.11-4.9-2.2c-0.165-0.221-0.12-0.534,0.101-0.7 c0.22-0.165,0.532-0.121,0.698,0.099C61.955,65.272,63.304,67,66,67c4.349,0,5.537-3.7,5.846-5.292 c0.053-0.271,0.319-0.445,0.587-0.396c0.271,0.053,0.448,0.315,0.396,0.587C72.55,63.33,71.235,68,66,68z"></path><path fill="#1f212b" d="M77.5,58h-2c-0.276,0-0.5-0.224-0.5-0.5s0.224-0.5,0.5-0.5h2c0.276,0,0.5,0.224,0.5,0.5 S77.776,58,77.5,58z"></path><path fill="#1f212b" d="M58.5,66c-0.276,0-0.5-0.224-0.5-0.5v-2c0-0.276,0.224-0.5,0.5-0.5s0.5,0.224,0.5,0.5v2 C59,65.776,58.776,66,58.5,66z"></path><path fill="#1f212b" d="M65,74c-13.595,0-15.38-7.575-15.392-14.204l-2.589-9.16c-0.075-0.266,0.079-0.542,0.345-0.617 c0.266-0.078,0.542,0.079,0.617,0.345l2.608,9.227c0.013,0.044,0.019,0.09,0.019,0.136C50.608,66.29,52.317,73,65,73 c6.321,0,13.164-2.973,15.578-6.769c0.149-0.232,0.46-0.3,0.69-0.153c0.232,0.148,0.302,0.457,0.153,0.69 C78.842,70.823,71.629,74,65,74z"></path><path fill="#1f212b" d="M70.5,78.022c-0.056,0-0.111-0.01-0.164-0.027c-0.071-0.025-1.739-0.623-2.311-2.337 c-0.027-0.083-0.033-0.171-0.016-0.256l0.47-2.352l0.98,0.195l-0.442,2.215c0.38,0.969,1.282,1.431,1.563,1.555 c0.308-0.032,1.36-0.218,2.463-1.27l0.968-4.354l0.977,0.217l-1,4.5c-0.021,0.093-0.067,0.178-0.135,0.245 c-1.625,1.625-3.276,1.668-3.346,1.669C70.505,78.022,70.503,78.022,70.5,78.022z"></path><path fill="#1f212b" d="M64,82.012l-1-0.023c0.002-0.063,0.208-6.381,5.495-7.967l0.209,0.46l0.137,0.481 C64.196,76.354,64.006,81.782,64,82.012z"></path><path fill="#1f212b" d="M78.842,75.881c-1.452-1.733-4.463-1.869-4.802-1.879l0.029-1c0.627,0.019,3.842,0.211,5.538,2.236 L78.842,75.881z"></path><path fill="#1f212b" d="M69.327,82.376C65.057,80.806,65,76.604,65,76.562l1-0.003c0.001,0.145,0.068,3.553,3.673,4.877 L69.327,82.376z"></path><path fill="#1f212b" d="M56.705,82.296c-7.685-10.489-7.103-22.478-7.096-22.598l0.998,0.057 c-0.006,0.116-0.561,11.759,6.905,21.949L56.705,82.296z"></path><path fill="#1f212b" d="M38.5,68c-0.038,0-0.077-0.004-0.115-0.014C38.16,67.934,38,67.731,38,67.5l0,0 c-0.001,0-0.081-0.763-1.485-6.379c-0.265-1.06-1.37-1.554-2.258-1.951c-0.176-0.079-0.339-0.152-0.481-0.223 C32.71,58.414,32,57.794,32,56.5c0-0.701,0.522-3.445,2-3.445c1.107,0,3.992,1.137,4.317,1.266c0.72,0.357,1.259,0.896,1.599,1.572 c0.624,1.244,2.002,4.934,1.558,6.266c-0.505,1.517-2.445,5.4-2.527,5.565C38.861,67.896,38.686,68,38.5,68z M34,54.055 c-0.44,0-1,1.657-1,2.445c0,0.721,0.286,1.084,1.224,1.553c0.13,0.065,0.28,0.132,0.442,0.204c0.971,0.435,2.438,1.09,2.82,2.622 c0.633,2.531,1.003,4.099,1.218,5.069c0.625-1.294,1.518-3.194,1.822-4.106c0.271-0.815-0.73-3.958-1.503-5.501 c-0.242-0.482-0.627-0.865-1.114-1.108C36.787,54.788,34.689,54.055,34,54.055z"></path><rect width="1" height="7.11" x="38.622" y="67.445" fill="#1f212b" transform="rotate(-10.078 39.12 70.997)"></rect><path fill="#1f212b" d="M44,68c-3.443,0-4.696-1.976-4.913-2.372l0.878-0.479C40.134,65.458,41.122,67,44,67 c1.229,0,2.186-0.447,2.195-0.451l0.432,0.902C46.58,67.474,45.465,68,44,68z"></path><path fill="#1f212b" d="M53.706,59.001c-2.028,0-3.146-1.654-3.532-2.365C50.058,56.42,50,56.184,50,55.931v-1.895 c0-0.446,0.191-0.861,0.524-1.141c0.424-0.357,1.164-0.889,2.271-1.385C53.934,51,55.172,51,55.639,51 c2.215,0,4.642,2.856,4.744,2.979c0.102,0.12,0.14,0.282,0.104,0.436C60.476,54.46,59.343,59,53.706,59.001z M55.639,52 c-0.446,0-1.491,0-2.434,0.423c-1.055,0.473-1.729,0.979-2.038,1.239C51.061,53.751,51,53.887,51,54.036v1.895 c0,0.087,0.018,0.162,0.055,0.23c0.299,0.552,1.16,1.84,2.651,1.84c4.174-0.001,5.443-2.739,5.735-3.58 C58.693,53.596,56.972,52,55.639,52z"></path><path fill="#1f212b" d="M71,53c-1.6,0-2.679-0.53-2.724-0.553c-0.168-0.084-0.275-0.256-0.276-0.443l-0.014-2 c-0.005-0.732,0.391-1.504,1.176-2.295C70.569,46.291,73.113,45,74.5,45c3.131,0,5.213,1.535,5.3,1.6 c0.126,0.094,0.2,0.243,0.2,0.4v1.5C80,49.806,76.846,53,71,53z M68.998,51.663C69.367,51.796,70.084,52,71,52 c5.314,0,8-2.909,8-3.5v-1.233C78.441,46.917,76.764,46,74.5,46c-1.011,0-3.301,1.076-4.628,2.413 c-0.583,0.587-0.889,1.134-0.886,1.584L68.998,51.663z"></path></g>
</svg>
